<svg width="780" height="760" viewBox="0 0 780 760" fill="none" xmlns="http://www.w3.org/2000/svg">
<g filter="url(#filter0_d_25_11)">
<path d="M678.236 355.411C657.79 132.116 362.409 262.372 285.734 355.411C276.606 359.133 252.873 333.082 364.234 271.676C355.107 262.372 288.777 245.625 258.35 240.043C202.974 223.296 94.0472 227.017 101.35 375.881C126.908 636.392 488.375 539.631 519.41 487.529C550.445 435.426 523.06 418.679 513.932 409.375C506.63 401.932 496.286 403.793 492.027 405.653C335.027 483.806 260.178 442.868 210.887 422.4C199.931 417.851 210.886 400.071 216.364 405.653C316.771 478.224 455.514 401.932 506.631 388.906C649.027 465.199 428.13 625.227 210.885 550.795C256.16 605.875 352.672 643.215 395.27 655C639.169 595.455 685.539 430.464 678.236 355.411Z" fill="#496581"/>
<path d="M285.734 355.411L285.923 355.874L286.04 355.827L286.12 355.729L285.734 355.411ZM678.236 355.411L677.738 355.457L677.739 355.46L678.236 355.411ZM395.27 655L395.136 655.482L395.262 655.517L395.388 655.486L395.27 655ZM210.885 550.795L211.047 550.322L209.379 549.751L210.499 551.113L210.885 550.795ZM506.631 388.906L506.867 388.465C506.757 388.406 506.628 388.391 506.507 388.422L506.631 388.906ZM216.364 405.653L216.007 406.003L216.037 406.034L216.071 406.058L216.364 405.653ZM210.887 422.4L211.079 421.939L210.887 422.4ZM492.027 405.653L491.827 405.195L491.816 405.2L491.805 405.206L492.027 405.653ZM519.41 487.529L518.98 487.273L519.41 487.529ZM101.35 375.881L100.85 375.905L100.851 375.918L100.852 375.93L101.35 375.881ZM258.35 240.043L258.206 240.521L258.232 240.53L258.26 240.535L258.35 240.043ZM364.234 271.676L364.476 272.114L365.053 271.796L364.591 271.326L364.234 271.676ZM285.734 355.411L286.12 355.729C305.236 332.534 338.017 306.984 376.779 285.195C415.537 263.41 460.236 245.406 503.164 237.277C546.101 229.147 587.201 230.907 618.82 248.562C650.409 266.199 672.638 299.756 677.738 355.457L678.236 355.411L678.734 355.366C673.611 299.419 651.25 265.523 619.308 247.688C587.397 229.872 546.025 228.143 502.978 236.295C459.92 244.448 415.119 262.497 376.289 284.324C337.465 306.147 304.57 331.769 285.348 355.094L285.734 355.411ZM678.236 355.411L677.739 355.46C685.017 430.265 638.808 595.028 395.151 654.514L395.27 655L395.388 655.486C639.529 595.881 686.06 430.662 678.734 355.363L678.236 355.411ZM395.27 655L395.403 654.518C374.134 648.634 339.387 636.364 304.306 618.686C269.217 601.005 233.843 577.938 211.271 550.478L210.885 550.795L210.499 551.113C233.201 578.732 268.721 601.875 303.856 619.58C339 637.288 373.808 649.581 395.136 655.482L395.27 655ZM210.885 550.795L210.723 551.268C319.49 588.534 429.181 567.115 493.888 526.797C526.227 506.646 547.423 481.713 551.537 456.936C555.663 432.082 542.578 407.599 506.867 388.465L506.631 388.906L506.394 389.347C541.881 408.36 554.582 432.489 550.551 456.772C546.506 481.132 525.599 505.859 493.359 525.948C428.904 566.109 319.525 587.489 211.047 550.322L210.885 550.795ZM506.631 388.906L506.507 388.422C493.697 391.686 475.397 398.913 453.662 406.753C431.904 414.601 406.656 423.082 379.875 428.89C326.305 440.508 266.691 441.411 216.657 405.248L216.364 405.653L216.071 406.058C266.444 442.467 326.405 441.509 380.087 429.867C406.933 424.045 432.23 415.546 454.001 407.694C475.794 399.833 494.006 392.639 506.754 389.391L506.631 388.906ZM216.364 405.653L216.721 405.303C215.954 404.522 215.067 404.13 214.131 404.084C213.206 404.039 212.275 404.333 211.404 404.844C209.668 405.861 208.068 407.792 207.011 410.013C205.953 412.236 205.405 414.821 205.859 417.174C206.319 419.556 207.799 421.66 210.695 422.862L210.887 422.4L211.079 421.939C208.497 420.866 207.238 419.041 206.841 416.985C206.439 414.899 206.918 412.535 207.914 410.442C208.911 408.347 210.393 406.595 211.909 405.707C212.664 405.264 213.402 405.05 214.082 405.083C214.75 405.116 215.404 405.389 216.007 406.003L216.364 405.653ZM210.887 422.4L210.695 422.862C235.317 433.086 266.434 448.478 311.032 451.509C355.637 454.54 413.688 445.208 492.25 406.101L492.027 405.653L491.805 405.206C413.365 444.252 355.492 453.527 311.1 450.511C266.7 447.494 235.748 432.182 211.079 421.939L210.887 422.4ZM492.027 405.653L492.227 406.111C494.292 405.21 497.864 404.297 501.81 404.524C505.746 404.752 510.03 406.111 513.576 409.725L513.932 409.375L514.289 409.025C510.533 405.196 505.994 403.764 501.867 403.526C497.751 403.288 494.022 404.236 491.827 405.195L492.027 405.653ZM513.932 409.375L513.576 409.725C518.212 414.451 527.2 420.843 531.26 432.566C535.302 444.239 534.455 461.294 518.98 487.273L519.41 487.529L519.839 487.784C535.4 461.661 536.378 444.291 532.205 432.239C528.049 420.237 518.781 413.603 514.289 409.025L513.932 409.375ZM519.41 487.529L518.98 487.273C515.173 493.664 506.233 500.822 493.342 507.938C480.474 515.041 463.74 522.066 444.437 528.222C405.831 540.536 356.994 549.364 308.335 548.435C259.673 547.506 211.234 536.818 173.378 510.147C135.54 483.49 108.224 440.829 101.847 375.832L101.35 375.881L100.852 375.93C107.254 441.189 134.705 484.124 172.802 510.965C210.879 537.791 259.538 548.503 308.316 549.435C357.099 550.366 406.045 541.517 444.741 529.175C464.089 523.004 480.887 515.956 493.826 508.813C506.743 501.682 515.888 494.418 519.839 487.784L519.41 487.529ZM101.35 375.881L101.849 375.856C98.2043 301.558 123.558 263.63 156.578 246.301C189.658 228.94 230.585 232.168 258.206 240.521L258.35 240.043L258.495 239.564C230.739 231.17 189.515 227.886 156.113 245.415C122.651 262.976 97.1924 301.34 100.85 375.905L101.35 375.881ZM258.35 240.043L258.26 240.535C273.456 243.323 297.63 248.901 319.144 254.945C329.901 257.967 339.984 261.103 347.944 264.062C351.924 265.541 355.365 266.974 358.09 268.323C360.829 269.678 362.799 270.927 363.878 272.026L364.234 271.676L364.591 271.326C363.388 270.099 361.289 268.79 358.534 267.426C355.766 266.057 352.29 264.611 348.292 263.125C340.297 260.152 330.184 257.008 319.415 253.982C297.875 247.931 273.671 242.345 258.441 239.551L258.35 240.043ZM364.234 271.676L363.993 271.238C336.135 286.599 316.71 299.758 303.386 310.804C290.066 321.845 282.82 330.795 279.354 337.743C275.888 344.69 276.17 349.714 278.063 352.795C279.944 355.856 283.388 356.908 285.923 355.874L285.734 355.411L285.545 354.948C283.516 355.776 280.571 354.967 278.915 352.271C277.271 349.596 276.868 344.967 280.248 338.19C283.628 331.416 290.758 322.571 304.024 311.574C317.285 300.58 336.653 287.456 364.476 272.114L364.234 271.676Z" fill="#496581"/>
</g>
<ellipse cx="276.606" cy="109.787" rx="105.884" ry="109.787" fill="#6186A2"/>
<ellipse cx="506.631" cy="109.787" rx="105.884" ry="109.787" fill="#31435F"/>
<defs>
<filter id="filter0_d_25_11" x="0.500122" y="135.619" width="778.941" height="623.898" filterUnits="userSpaceOnUse" color-interpolation-filters="sRGB">
<feFlood flood-opacity="0" result="BackgroundImageFix"/>
<feColorMatrix in="SourceAlpha" type="matrix" values="0 0 0 0 0 0 0 0 0 0 0 0 0 0 0 0 0 0 127 0" result="hardAlpha"/>
<feOffset dy="4"/>
<feGaussianBlur stdDeviation="50"/>
<feComposite in2="hardAlpha" operator="out"/>
<feColorMatrix type="matrix" values="0 0 0 0 0 0 0 0 0 0 0 0 0 0 0 0 0 0 0.25 0"/>
<feBlend mode="normal" in2="BackgroundImageFix" result="effect1_dropShadow_25_11"/>
<feBlend mode="normal" in="SourceGraphic" in2="effect1_dropShadow_25_11" result="shape"/>
</filter>
</defs>
</svg>
