<svg width="100" height="100" viewBox="0 0 100 100" fill="none" xmlns="http://www.w3.org/2000/svg">
<rect width="100" height="100" rx="13" fill="#B2B4DF" fill-opacity="0.4"/>
<path d="M28.9112 77.4166C28.1203 77.4166 27.434 77.1258 26.8524 76.5442C26.2708 75.9626 25.98 75.2763 25.98 74.4853V67.1572C25.98 62.9697 27.2828 59.2708 29.8883 56.0603C32.4939 52.8499 35.8439 50.8027 39.9383 49.9187C38.0772 51.2214 36.6348 52.8616 35.6112 54.839C34.5876 56.8164 34.0758 58.9451 34.0758 61.2249V74.4853C34.0758 74.9971 34.1456 75.5089 34.2852 76.0208C34.4248 76.5326 34.6574 76.9978 34.9831 77.4166H28.9112ZM39.1706 77.4166C38.3796 77.4166 37.6933 77.1258 37.1118 76.5442C36.5302 75.9626 36.2394 75.2763 36.2394 74.4853V61.2249C36.2394 57.968 37.3909 55.1996 39.694 52.9197C41.9972 50.6398 44.7772 49.4999 48.0341 49.4999H61.2248C64.4817 49.4999 67.2501 50.6398 69.53 52.9197C71.8098 55.1996 72.9498 57.968 72.9498 61.2249V65.6916C72.9498 68.9485 71.8098 71.7169 69.53 73.9968C67.2501 76.2767 64.4817 77.4166 61.2248 77.4166H39.1706ZM49.4998 43.6374C46.4289 43.6374 43.8234 42.5673 41.6831 40.427C39.5428 38.2867 38.4727 35.6812 38.4727 32.6103C38.4727 29.5395 39.5428 26.9339 41.6831 24.7937C43.8234 22.6534 46.4289 21.5833 49.4998 21.5833C52.5706 21.5833 55.1762 22.6534 57.3164 24.7937C59.4567 26.9339 60.5269 29.5395 60.5269 32.6103C60.5269 35.6812 59.4567 38.2867 57.3164 40.427C55.1762 42.5673 52.5706 43.6374 49.4998 43.6374Z" fill="#757AD0"/>
</svg>
