<svg width="100" height="100" viewBox="0 0 100 100" fill="none" xmlns="http://www.w3.org/2000/svg">
<rect width="100" height="100" rx="13" fill="#B2B4DF" fill-opacity="0.4"/>
<path d="M53.3122 74.9166C48.7372 74.9166 44.84 73.3069 41.6205 70.0874C38.4011 66.868 36.7913 62.9708 36.7913 58.3958V56.9343C33.1483 56.3412 30.1195 54.6362 27.7049 51.8192C25.2903 49.0022 24.083 45.6874 24.083 41.8749V26.6249H31.708V24.0833H36.7913V34.2499H31.708V31.7083H29.1663V41.8749C29.1663 44.6708 30.1618 47.0642 32.1528 49.0551C34.1438 51.0461 36.5372 52.0416 39.333 52.0416C42.1288 52.0416 44.5222 51.0461 46.5132 49.0551C48.5042 47.0642 49.4997 44.6708 49.4997 41.8749V31.7083H46.958V34.2499H41.8747V24.0833H46.958V26.6249H54.583V41.8749C54.583 45.6874 53.3757 49.0022 50.9611 51.8192C48.5465 54.6362 45.5177 56.3412 41.8747 56.9343V58.3958C41.8747 61.5728 42.9867 64.2734 45.2106 66.4973C47.4346 68.7213 50.1351 69.8333 53.3122 69.8333C56.4893 69.8333 59.1898 68.7213 61.4137 66.4973C63.6377 64.2734 64.7497 61.5728 64.7497 58.3958V54.1385C63.267 53.6301 62.0492 52.7194 61.096 51.4062C60.1429 50.093 59.6663 48.6103 59.6663 46.9583C59.6663 44.8402 60.4077 43.0398 61.8903 41.5572C63.3729 40.0746 65.1733 39.3333 67.2913 39.3333C69.4094 39.3333 71.2097 40.0746 72.6924 41.5572C74.175 43.0398 74.9163 44.8402 74.9163 46.9583C74.9163 48.6103 74.4398 50.093 73.4867 51.4062C72.5335 52.7194 71.3156 53.6301 69.833 54.1385V58.3958C69.833 62.9708 68.2233 66.868 65.0038 70.0874C61.7844 73.3069 57.8872 74.9166 53.3122 74.9166ZM67.2913 49.4999C68.0115 49.4999 68.6151 49.2563 69.1023 48.7692C69.5894 48.282 69.833 47.6784 69.833 46.9583C69.833 46.2381 69.5894 45.6345 69.1023 45.1473C68.6151 44.6602 68.0115 44.4166 67.2913 44.4166C66.5712 44.4166 65.9676 44.6602 65.4804 45.1473C64.9933 45.6345 64.7497 46.2381 64.7497 46.9583C64.7497 47.6784 64.9933 48.282 65.4804 48.7692C65.9676 49.2563 66.5712 49.4999 67.2913 49.4999Z" fill="#757AD0"/>
</svg>
