<svg width="42" height="31" viewBox="0 0 42 31" fill="none" xmlns="http://www.w3.org/2000/svg">
<path d="M15 30.5C14.4062 30.5 13.875 30.3281 13.4062 29.9844C12.9375 29.6406 12.5938 29.2031 12.375 28.6719L8.0625 17.375H0V13.625H10.6875L15 25.0625L23.625 2.32812C23.8438 1.79688 24.1875 1.35938 24.6562 1.01562C25.125 0.671875 25.6562 0.5 26.25 0.5C26.8438 0.5 27.375 0.671875 27.8438 1.01562C28.3125 1.35938 28.6562 1.79688 28.875 2.32812L33.1875 13.625H41.25V17.375H30.5625L26.25 5.9375L17.625 28.6719C17.4062 29.2031 17.0625 29.6406 16.5938 29.9844C16.125 30.3281 15.5938 30.5 15 30.5Z" fill="#757AD0"/>
</svg>
