<svg width="45" height="57" viewBox="0 0 45 57" fill="none" xmlns="http://www.w3.org/2000/svg">
<path d="M11.3337 31.2918H33.667V25.7085H11.3337V31.2918ZM11.3337 39.6668H33.667V34.0835H11.3337V39.6668ZM11.3337 48.0418H25.292V42.4585H11.3337V48.0418ZM5.75033 56.4168C4.21491 56.4168 2.9005 55.8701 1.8071 54.7767C0.713694 53.6833 0.166992 52.3689 0.166992 50.8335V6.16683C0.166992 4.63141 0.713694 3.317 1.8071 2.2236C2.9005 1.1302 4.21491 0.583496 5.75033 0.583496H28.0837L44.8337 17.3335V50.8335C44.8337 52.3689 44.287 53.6833 43.1936 54.7767C42.1002 55.8701 40.7857 56.4168 39.2503 56.4168H5.75033ZM25.292 20.1252V6.16683H5.75033V50.8335H39.2503V20.1252H25.292Z" fill="#757AD0"/>
</svg>
