<svg width="41" height="25" viewBox="0 0 41 25" fill="none" xmlns="http://www.w3.org/2000/svg">
<path d="M2.87 25L0 22.0833L10.865 11.0417C12.0608 9.82639 13.5129 9.21875 15.2212 9.21875C16.9296 9.21875 18.3817 9.82639 19.5775 11.0417L21.935 13.4375C22.345 13.8542 22.8319 14.0625 23.3956 14.0625C23.9594 14.0625 24.4462 13.8542 24.8562 13.4375L33.9787 4.16667H28.7V0H41V12.5H36.9V7.13542L27.7262 16.4062C26.5304 17.6215 25.0783 18.2292 23.37 18.2292C21.6617 18.2292 20.2096 17.6215 19.0138 16.4062L16.605 13.9583C16.2292 13.5764 15.7508 13.3854 15.17 13.3854C14.5892 13.3854 14.1108 13.5764 13.735 13.9583L2.87 25Z" fill="#757AD0"/>
</svg>
